<svg width="12" height="13" viewBox="0 0 12 13" fill="none" xmlns="http://www.w3.org/2000/svg">
<path d="M6.16658 8.31371V12.8334H0.333252C0.333071 12.1211 0.495956 11.4182 0.809426 10.7785C1.1229 10.1389 1.57863 9.5795 2.14171 9.14323C2.70479 8.70695 3.36027 8.40537 4.05792 8.26158C4.75558 8.1178 5.47689 8.13563 6.16658 8.31371ZM4.99992 7.58337C3.06617 7.58337 1.49992 6.01712 1.49992 4.08337C1.49992 2.14962 3.06617 0.583374 4.99992 0.583374C6.93367 0.583374 8.49992 2.14962 8.49992 4.08337C8.49992 6.01712 6.93367 7.58337 4.99992 7.58337ZM8.84175 9.91671L7.77484 8.85037L8.60025 8.02496L11.0748 10.5L8.60025 12.9751L7.77484 12.1497L8.84175 11.0834H6.74992V9.91671H8.84175Z" fill="#5D737E"/>
</svg>
