<svg width="14" height="14" viewBox="0 0 14 14" fill="none" xmlns="http://www.w3.org/2000/svg">
<path d="M7 2.99997C7 3.52597 7.203 4.00397 7.535 4.36097C8.53041 3.98161 9.61429 3.89826 10.656 4.12097C10.8314 3.86193 10.9436 3.56535 10.9836 3.25507C11.0236 2.94479 10.9902 2.62945 10.8862 2.33441C10.7821 2.03937 10.6103 1.77285 10.3846 1.55627C10.1588 1.33969 9.8854 1.17909 9.5863 1.08738C9.28719 0.995667 8.97075 0.975403 8.66239 1.02821C8.35403 1.08102 8.06236 1.20544 7.81082 1.39145C7.55929 1.57747 7.35489 1.8199 7.21407 2.09926C7.07325 2.37862 6.99993 2.68712 7 2.99997Z" fill="#5D737E"/>
<path d="M4.06 11H4.207C4.06921 10.5119 3.99955 10.0071 4 9.5C4 8.17 4.472 6.95 5.257 6H1.5C1.10218 6 0.720644 6.15804 0.43934 6.43934C0.158035 6.72064 0 7.10218 0 7.5V8.275C0 10.097 1.446 11 4.06 11Z" fill="#5D737E"/>
<path d="M4 0C4.66304 0 5.29893 0.263392 5.76777 0.732233C6.23661 1.20107 6.5 1.83696 6.5 2.5C6.5 3.16304 6.23661 3.79893 5.76777 4.26777C5.29893 4.73661 4.66304 5 4 5C3.33696 5 2.70107 4.73661 2.23223 4.26777C1.76339 3.79893 1.5 3.16304 1.5 2.5C1.5 1.83696 1.76339 1.20107 2.23223 0.732233C2.70107 0.263392 3.33696 0 4 0Z" fill="#5D737E"/>
<path d="M14 9.5C14 10.6935 13.5259 11.8381 12.682 12.682C11.8381 13.5259 10.6935 14 9.5 14C8.30653 14 7.16193 13.5259 6.31802 12.682C5.47411 11.8381 5 10.6935 5 9.5C5 8.30653 5.47411 7.16193 6.31802 6.31802C7.16193 5.47411 8.30653 5 9.5 5C10.6935 5 11.8381 5.47411 12.682 6.31802C13.5259 7.16193 14 8.30653 14 9.5ZM10 7.5C10 7.36739 9.94732 7.24021 9.85355 7.14645C9.75979 7.05268 9.63261 7 9.5 7C9.36739 7 9.24021 7.05268 9.14645 7.14645C9.05268 7.24021 9 7.36739 9 7.5V9H7.5C7.36739 9 7.24021 9.05268 7.14645 9.14645C7.05268 9.24021 7 9.36739 7 9.5C7 9.63261 7.05268 9.75979 7.14645 9.85355C7.24021 9.94732 7.36739 10 7.5 10H9V11.5C9 11.6326 9.05268 11.7598 9.14645 11.8536C9.24021 11.9473 9.36739 12 9.5 12C9.63261 12 9.75979 11.9473 9.85355 11.8536C9.94732 11.7598 10 11.6326 10 11.5V10H11.5C11.6326 10 11.7598 9.94732 11.8536 9.85355C11.9473 9.75979 12 9.63261 12 9.5C12 9.36739 11.9473 9.24021 11.8536 9.14645C11.7598 9.05268 11.6326 9 11.5 9H10V7.5Z" fill="#5D737E"/>
</svg>
