<svg width="9" height="6" viewBox="0 0 9 6" fill="none" xmlns="http://www.w3.org/2000/svg">
<path d="M1.32009 2.61589C1.10795 2.43911 0.792671 2.46777 0.615889 2.67991C0.439107 2.89205 0.467769 3.20733 0.679908 3.38411L1.32009 2.61589ZM4 5.5L3.67991 5.88411C3.78311 5.97011 3.91658 6.01097 4.05024 5.99747C4.18391 5.98397 4.30651 5.91725 4.39043 5.81235L4 5.5ZM8.39043 0.812348C8.56294 0.596717 8.52798 0.28207 8.31235 0.109566C8.09672 -0.0629392 7.78207 -0.0279785 7.60957 0.187652L8.39043 0.812348ZM0.679908 3.38411L3.67991 5.88411L4.32009 5.11589L1.32009 2.61589L0.679908 3.38411ZM4.39043 5.81235L8.39043 0.812348L7.60957 0.187652L3.60957 5.18765L4.39043 5.81235Z" fill="white"/>
</svg>
