<svg width="12" height="13" viewBox="0 0 12 13" fill="none" xmlns="http://www.w3.org/2000/svg">
<path d="M6.16683 8.31371V12.8334H0.333496C0.333315 12.1211 0.4962 11.4182 0.80967 10.7785C1.12314 10.1389 1.57888 9.5795 2.14196 9.14323C2.70504 8.70695 3.36052 8.40537 4.05817 8.26158C4.75582 8.1178 5.47713 8.13563 6.16683 8.31371ZM5.00016 7.58337C3.06641 7.58337 1.50016 6.01712 1.50016 4.08337C1.50016 2.14962 3.06641 0.583374 5.00016 0.583374C6.93391 0.583374 8.50016 2.14962 8.50016 4.08337C8.50016 6.01712 6.93391 7.58337 5.00016 7.58337ZM8.842 9.91671L7.77508 8.85037L8.6005 8.02496L11.075 10.5L8.6005 12.9751L7.77508 12.1497L8.842 11.0834H6.75016V9.91671H8.842Z" fill="#5D737E"/>
</svg>
