<svg width="254" height="83" viewBox="0 0 254 83" fill="none" xmlns="http://www.w3.org/2000/svg">
<path d="M0.5 15H10.45V15.55H7.85V32.2H25.15V15.55H22.6V15H32.5V15.55H29.95V49.45H32.5V50H22.6V49.45H25.15V32.8H7.85V49.45H10.45V50H0.5V49.45H3.1V15.55H0.5V15ZM47.9078 46.8C47.2578 47.75 46.3078 48.5 45.0578 49.05C43.7078 49.7 42.2578 50 40.7078 50C38.9578 50 37.5578 49.6 36.5578 48.75C35.5078 47.9 35.0078 46.75 35.0078 45.35C35.0078 43.05 36.1578 41.2 38.4078 39.85C40.7078 38.55 43.8578 37.85 47.9078 37.8V32.5C47.9078 31.5 47.5578 30.8 46.9078 30.3C46.2578 29.8 45.2078 29.6 43.8078 29.6C40.3578 29.6 38.5078 32.3 37.6078 35.55H37.4078L37.1578 32.9C39.3078 28.55 47.2578 27.8 50.3578 30.2C51.4078 31 51.9078 32.45 51.9078 34.5V49.45H53.4078V50H46.4078V49.45H47.9078V46.8ZM47.9078 38.4C45.0078 38.4 42.8078 38.85 41.2578 39.85C39.7078 40.85 38.9578 42.25 38.9578 44.15C38.9578 45.45 39.3078 46.55 40.0078 47.35C40.7578 48.15 41.7078 48.55 42.8578 48.55C44.3578 48.55 45.5578 48.1 46.5078 47.25C47.4578 46.4 47.9078 45.3 47.9078 43.9V38.4ZM56.9348 60.85C56.9348 49.45 56.8848 41.45 56.8848 30H54.1348V29.45H62.0848V30H60.5848V33.45C61.2348 32.15 62.1348 31.2 63.2348 30.6C64.3348 29.95 65.6348 29.6 67.1348 29.6C69.8348 29.6 72.0848 30.6 73.8848 32.6C75.7348 34.6 76.6348 37.1 76.6348 40.1C76.6348 43.05 75.7348 45.5 73.8848 47.5C72.0848 49.5 69.8848 50.5 67.2848 50.5C65.7348 50.5 64.4348 50.2 63.3848 49.55C62.3848 48.9 61.5348 47.95 60.8848 46.6V60.85H63.6348V61.4H54.1348V60.85H56.9348ZM60.8348 42.7C60.8348 44.75 61.3848 46.45 62.5348 47.85C63.6848 49.2 65.0848 49.9 66.7848 49.9C68.6848 49.9 70.0348 49.2 70.7848 47.85C71.5848 46.45 71.9348 43.95 71.9348 40.3C71.9348 36.55 71.5348 33.95 70.7848 32.5C69.9848 31 68.6348 30.3 66.7848 30.3C65.0848 30.3 63.6848 30.9 62.5348 32.1C61.3848 33.3 60.8348 34.8 60.8348 36.6V42.7ZM80.6016 49.45V15.55H77.8516V15H84.6516V49.45H87.4016V50H77.8516V49.45H80.6016ZM89.4102 39.5C89.4102 36.55 90.3602 34.05 92.3102 32.05C94.2602 30.05 96.6102 29 99.4102 29C102.26 29 104.61 30 106.51 32C108.36 34 109.31 36.5 109.31 39.45C109.31 42.4 108.31 44.9 106.36 46.95C104.41 48.95 102.11 50 99.3602 50C96.5102 50 94.1102 49 92.2602 47C90.3602 45 89.4102 42.5 89.4102 39.5ZM94.2102 39.5C94.2102 43.5 94.6102 46.15 95.3602 47.5C96.1102 48.85 97.4602 49.55 99.3602 49.55C101.21 49.55 102.56 48.85 103.31 47.4C104.11 45.95 104.51 43.35 104.51 39.55C104.51 35.55 104.11 32.9 103.36 31.55C102.61 30.25 101.26 29.6 99.4102 29.6C97.5102 29.6 96.1602 30.3 95.3602 31.65C94.6102 33.1 94.2102 35.7 94.2102 39.5ZM112.053 46.15L112.303 42.8H112.603C113.753 46.8 116.553 49.7 120.553 49.7C125.453 49.7 129.303 43.3 120.503 41.55L118.853 41.2C116.203 40.65 114.453 39.95 113.453 39.1C112.503 38.15 112.053 36.9 112.053 35.15C112.053 33.35 112.653 31.8 113.953 30.65C115.203 29.5 116.803 28.95 118.803 28.85C122.303 28.75 125.003 30.95 125.653 32.05L125.153 35.15H124.903C124.653 31.8 122.203 29.25 118.803 29.25C114.303 29.25 112.253 34 115.953 35.7C117.003 36.2 118.353 36.55 120.203 36.9L121.703 37.15C123.753 37.5 125.253 38.2 126.253 39.25C127.303 40.25 127.803 41.55 127.803 43.25C127.803 45.35 127.053 47.1 125.703 48.35C124.303 49.65 122.403 50.25 120.003 50.25C116.953 50.25 113.903 48.55 112.053 46.15ZM148.895 43.15H149.545C148.395 47.6 145.145 50 140.595 50C137.695 50 135.245 49.05 133.395 47.15C131.495 45.2 130.545 42.8 130.545 39.85C130.545 36.75 131.545 34.2 133.595 32.15C135.595 30.15 138.145 29.1 141.195 29.1C142.145 29.1 143.045 29.2 143.845 29.4C145.945 30 147.745 31.15 148.645 32.9V32.95L148.445 35.6H148.245C147.095 31.6 145.295 29.65 141.295 29.65C139.195 29.65 137.695 30.4 136.745 31.9C135.795 33.4 135.295 36.25 135.295 39.55C135.295 42.85 135.745 45.8 136.595 47.25C137.495 48.65 138.945 49.4 140.895 49.4C145.295 49.4 147.895 46.7 148.895 43.15ZM151.82 39.5C151.82 36.55 152.77 34.05 154.72 32.05C156.67 30.05 159.02 29 161.82 29C164.67 29 167.02 30 168.92 32C170.77 34 171.72 36.5 171.72 39.45C171.72 42.4 170.72 44.9 168.77 46.95C166.82 48.95 164.52 50 161.77 50C158.92 50 156.52 49 154.67 47C152.77 45 151.82 42.5 151.82 39.5ZM156.62 39.5C156.62 43.5 157.02 46.15 157.77 47.5C158.52 48.85 159.87 49.55 161.77 49.55C163.62 49.55 164.97 48.85 165.72 47.4C166.52 45.95 166.92 43.35 166.92 39.55C166.92 35.55 166.52 32.9 165.77 31.55C165.02 30.25 163.67 29.6 161.82 29.6C159.92 29.6 158.57 30.3 157.77 31.65C157.02 33.1 156.62 35.7 156.62 39.5ZM175.749 60.85C175.749 49.45 175.699 41.45 175.699 30H172.949V29.45H180.899V30H179.399V33.45C180.049 32.15 180.949 31.2 182.049 30.6C183.149 29.95 184.449 29.6 185.949 29.6C188.649 29.6 190.899 30.6 192.699 32.6C194.549 34.6 195.449 37.1 195.449 40.1C195.449 43.05 194.549 45.5 192.699 47.5C190.899 49.5 188.699 50.5 186.099 50.5C184.549 50.5 183.249 50.2 182.199 49.55C181.199 48.9 180.349 47.95 179.699 46.6V60.85H182.449V61.4H172.949V60.85H175.749ZM179.649 42.7C179.649 44.75 180.199 46.45 181.349 47.85C182.499 49.2 183.899 49.9 185.599 49.9C187.499 49.9 188.849 49.2 189.599 47.85C190.399 46.45 190.749 43.95 190.749 40.3C190.749 36.55 190.349 33.95 189.599 32.5C188.799 31 187.449 30.3 185.599 30.3C183.899 30.3 182.499 30.9 181.349 32.1C180.199 33.3 179.649 34.8 179.649 36.6V42.7ZM203.274 37.45C203.274 40.2 203.124 45.05 204.574 47.3C205.474 48.65 207.024 49.4 209.174 49.4C213.124 49.4 216.024 47.1 217.124 43H217.724C216.674 47.55 213.424 50 208.574 50C205.724 50 203.274 49.05 201.324 47.1C199.374 45.2 198.424 42.85 198.424 40.05C198.424 36.95 199.424 34.35 201.424 32.25C203.374 30.1 205.824 29.05 208.724 29.05C211.424 29.05 213.574 29.8 215.124 31.35C216.674 32.85 217.574 34.6 217.824 37.45H203.274ZM203.224 36.9H213.274C213.274 35.25 213.074 32.4 212.074 31.05C211.374 30.15 210.274 29.65 208.674 29.65C207.024 29.65 205.774 30.2 204.924 31.3C204.024 32.35 203.374 34.75 203.224 36.9Z" fill="black"/>
<path d="M1.03125 79H2.33203V70.457H1.03125V79ZM13.9711 70.457V77.5352L9.50625 70.457H7.99453V79H9.30703V72.5312L13.3852 79H15.2719V70.457H13.9711ZM26.9109 70.457V77.5352L22.4461 70.457H20.9344V79H22.2469V72.5312L26.325 79H28.2117V70.457H26.9109ZM34.9289 74.7344C34.9289 72.8477 36.2062 71.418 37.9055 71.418C39.6047 71.418 40.882 72.8477 40.882 74.7344C40.882 76.7148 39.6867 78.0391 37.9055 78.0391C36.1242 78.0391 34.9289 76.7148 34.9289 74.7344ZM33.5227 74.7344C33.5227 77.3594 35.2805 79.1055 37.9055 79.1055C40.5305 79.1055 42.2883 77.3594 42.2883 74.7344C42.2883 72.2383 40.4016 70.3516 37.9055 70.3516C35.4094 70.3516 33.5227 72.2383 33.5227 74.7344ZM46.7203 70.457L49.8609 79H51.1148L54.2086 70.457H52.8023L50.482 77.3008L48.1266 70.457H46.7203ZM64.7227 77.2773L65.4492 79H66.8789L63.2461 70.457H61.8047L58.0781 79H59.5195L60.2578 77.2773H64.7227ZM60.668 76.293L62.4961 71.9922L64.3125 76.293H60.668ZM70.7133 71.5234H73.725V79H75.0258V71.5234H78.0375V70.457H70.7133V71.5234ZM82.7859 79H84.0867V70.457H82.7859V79ZM95.7258 70.457V77.5352L91.2609 70.457H89.7492V79H91.0617V72.5312L95.1398 79H97.0266V70.457H95.7258ZM107.611 74.2539V75.3086L109.474 75.2969V77.3125C108.959 77.7461 108.103 78.0391 107.107 78.0391C105.056 78.0391 103.685 76.7148 103.685 74.7344C103.685 72.7422 105.056 71.418 107.107 71.418C107.904 71.418 109.029 71.8867 109.908 72.6016L110.505 71.5117C109.638 70.8203 108.279 70.3516 107.107 70.3516C104.213 70.3516 102.279 72.1094 102.279 74.7344C102.279 77.3594 104.213 79.1055 107.107 79.1055C108.572 79.1055 109.884 78.6367 110.716 77.9453L110.728 75.2852V74.2305L107.611 74.2539ZM130.022 77.1953C129.26 77.957 128.17 78.0391 127.139 78.0391C125.346 78.0391 124.151 76.5156 124.151 74.7344C124.151 72.9414 125.346 71.418 127.139 71.418C128.053 71.418 129.143 71.6289 130.022 72.3438L130.62 71.2539C129.752 70.5625 128.428 70.3516 127.139 70.3516C124.502 70.3516 122.745 72.3672 122.745 74.7344C122.745 77.0898 124.502 79.1055 127.139 79.1055C128.534 79.1055 129.87 79.0352 130.62 78.2852L130.022 77.1953ZM141.251 77.2773L141.977 79H143.407L139.774 70.457H138.333L134.606 79H136.048L136.786 77.2773H141.251ZM137.196 76.293L139.024 71.9922L140.841 76.293H137.196ZM154.167 70.457V77.5352L149.702 70.457H148.191V79H149.503V72.5312L153.581 79H155.468V70.457H154.167ZM167.998 77.1953C167.236 77.957 166.146 78.0391 165.115 78.0391C163.322 78.0391 162.127 76.5156 162.127 74.7344C162.127 72.9414 163.322 71.418 165.115 71.418C166.029 71.418 167.119 71.6289 167.998 72.3438L168.595 71.2539C167.728 70.5625 166.404 70.3516 165.115 70.3516C162.478 70.3516 160.72 72.3672 160.72 74.7344C160.72 77.0898 162.478 79.1055 165.115 79.1055C166.509 79.1055 167.845 79.0352 168.595 78.2852L167.998 77.1953ZM173.496 79H179.789V77.9336H174.809V75.4844H179.379V74.4648H174.809V71.5234H179.613V70.457H173.496V79ZM185.041 79H186.354V75.625H188.194L190.256 79H191.756L189.623 75.5078C190.83 75.2266 191.452 74.3945 191.452 73.0234C191.452 71.3242 190.467 70.457 188.569 70.457H185.041V79ZM186.354 74.6055V71.4766H188.51C189.588 71.4766 190.151 72.0039 190.151 73.0234C190.151 74.0664 189.623 74.6055 188.604 74.6055H186.354ZM210.64 77.1953C209.878 77.957 208.788 78.0391 207.757 78.0391C205.964 78.0391 204.769 76.5156 204.769 74.7344C204.769 72.9414 205.964 71.418 207.757 71.418C208.671 71.418 209.761 71.6289 210.64 72.3438L211.238 71.2539C210.37 70.5625 209.046 70.3516 207.757 70.3516C205.12 70.3516 203.363 72.3672 203.363 74.7344C203.363 77.0898 205.12 79.1055 207.757 79.1055C209.152 79.1055 210.488 79.0352 211.238 78.2852L210.64 77.1953ZM221.869 77.2773L222.595 79H224.025L220.392 70.457H218.951L215.224 79H216.666L217.404 77.2773H221.869ZM217.814 76.293L219.642 71.9922L221.459 76.293H217.814ZM228.809 79H230.121V75.625H231.961L234.023 79H235.523L233.391 75.5078C234.598 75.2266 235.219 74.3945 235.219 73.0234C235.219 71.3242 234.234 70.457 232.336 70.457H228.809V79ZM230.121 74.6055V71.4766H232.277C233.355 71.4766 233.918 72.0039 233.918 73.0234C233.918 74.0664 233.391 74.6055 232.371 74.6055H230.121ZM240.295 79H246.588V77.9336H241.608V75.4844H246.178V74.4648H241.608V71.5234H246.412V70.457H240.295V79Z" fill="#457B9D"/>
<path d="M220.667 27.1665C217.758 24.2574 215.667 19.6669 219.833 15.5005C224 11.3333 228.591 13.4244 231.5 16.3334L234.833 19.6668L224 30.5001L220.667 27.1665Z" fill="#C00C2D"/>
<path fill-rule="evenodd" clip-rule="evenodd" d="M236.776 15.3833C239.954 12.2056 245.106 12.2056 248.283 15.3833C251.461 18.561 251.461 23.7131 248.283 26.8909L241.42 33.7538L239.063 31.3968L245.926 24.5339C247.802 22.6579 247.802 19.6163 245.926 17.7403C244.05 15.8643 241.009 15.8643 239.133 17.7403L225.178 31.6794L222.822 29.3206L236.776 15.3833Z" fill="#C00C2D"/>
<path d="M235.667 33C235.667 33.9205 234.92 34.6667 234 34.6667C233.08 34.6667 232.333 33.9205 232.333 33C232.333 32.0795 233.08 31.3333 234 31.3333C234.92 31.3333 235.667 32.0795 235.667 33Z" fill="#C00C2D"/>
<path d="M239 38C239 38.9205 238.254 39.6667 237.333 39.6667C236.413 39.6667 235.667 38.9205 235.667 38C235.667 37.0795 236.413 36.3333 237.333 36.3333C238.254 36.3333 239 37.0795 239 38Z" fill="#C00C2D"/>
<path d="M234 41.3333C234 42.2538 233.254 43 232.333 43C231.413 43 230.667 42.2538 230.667 41.3333C230.667 40.4128 231.413 39.6667 232.333 39.6667C233.254 39.6667 234 40.4128 234 41.3333Z" fill="#C00C2D"/>
</svg>
