<svg width="20" height="16" viewBox="0 0 20 16" fill="none" xmlns="http://www.w3.org/2000/svg">
<path d="M10 3.00001C11.5323 2.99491 13.0349 3.42232 14.3351 4.23311C15.6353 5.0439 16.6803 6.20514 17.35 7.58334C16.8667 8.57901 16.183 9.46416 15.3417 10.1833L16.5167 11.3583C17.675 10.3333 18.5917 9.05 19.1667 7.58334C17.725 3.92501 14.1667 1.33334 10 1.33334C8.94168 1.33334 7.92501 1.50001 6.96668 1.80834L8.34168 3.18334C8.88334 3.075 9.43334 3.00001 10 3.00001ZM9.10834 3.95L10.8333 5.675C11.3083 5.88334 11.6917 6.26667 11.9 6.74167L13.625 8.46667C13.6917 8.18334 13.7417 7.88334 13.7417 7.57501C13.75 5.50834 12.0667 3.83334 10 3.83334C9.69168 3.83334 9.40001 3.875 9.10834 3.95ZM1.67501 1.225L3.90834 3.45834C2.53361 4.53431 1.47188 5.95858 0.833344 7.58334C2.27501 11.2417 5.83334 13.8333 10 13.8333C11.2667 13.8333 12.4833 13.5917 13.6 13.15L16.45 16L17.625 14.825L2.85001 0.0416718L1.67501 1.225ZM7.92501 7.47501L10.1 9.65C10.0667 9.65834 10.0333 9.66667 10 9.66667C9.44748 9.66667 8.91757 9.44718 8.52687 9.05648C8.13617 8.66578 7.91668 8.13587 7.91668 7.58334C7.91668 7.54167 7.92501 7.51667 7.92501 7.47501ZM5.09168 4.64167L6.55001 6.10001C6.35243 6.5696 6.25045 7.07387 6.25001 7.58334C6.25109 8.20336 6.40565 8.81347 6.6999 9.35921C6.99415 9.90497 7.41893 10.3694 7.93634 10.711C8.45374 11.0527 9.04768 11.2609 9.66515 11.3171C10.2826 11.3734 10.9044 11.2759 11.475 11.0333L12.2917 11.85C11.5583 12.05 10.7917 12.1667 10 12.1667C8.46773 12.1718 6.96511 11.7444 5.66491 10.9336C4.3647 10.1228 3.31969 8.96154 2.65001 7.58334C3.23334 6.39167 4.08334 5.40834 5.09168 4.64167Z" fill="#999999"/>
</svg>
