<svg width="287" height="82" viewBox="0 0 287 82" fill="none" xmlns="http://www.w3.org/2000/svg">
<path d="M0.5 15H10.45V15.55H7.85V32.2H25.15V15.55H22.6V15H32.5V15.55H29.95V49.45H32.5V50H22.6V49.45H25.15V32.8H7.85V49.45H10.45V50H0.5V49.45H3.1V15.55H0.5V15ZM47.9078 46.8C47.2578 47.75 46.3078 48.5 45.0578 49.05C43.7078 49.7 42.2578 50 40.7078 50C38.9578 50 37.5578 49.6 36.5578 48.75C35.5078 47.9 35.0078 46.75 35.0078 45.35C35.0078 43.05 36.1578 41.2 38.4078 39.85C40.7078 38.55 43.8578 37.85 47.9078 37.8V32.5C47.9078 31.5 47.5578 30.8 46.9078 30.3C46.2578 29.8 45.2078 29.6 43.8078 29.6C40.3578 29.6 38.5078 32.3 37.6078 35.55H37.4078L37.1578 32.9C39.3078 28.55 47.2578 27.8 50.3578 30.2C51.4078 31 51.9078 32.45 51.9078 34.5V49.45H53.4078V50H46.4078V49.45H47.9078V46.8ZM47.9078 38.4C45.0078 38.4 42.8078 38.85 41.2578 39.85C39.7078 40.85 38.9578 42.25 38.9578 44.15C38.9578 45.45 39.3078 46.55 40.0078 47.35C40.7578 48.15 41.7078 48.55 42.8578 48.55C44.3578 48.55 45.5578 48.1 46.5078 47.25C47.4578 46.4 47.9078 45.3 47.9078 43.9V38.4ZM56.9348 60.85C56.9348 49.45 56.8848 41.45 56.8848 30H54.1348V29.45H62.0848V30H60.5848V33.45C61.2348 32.15 62.1348 31.2 63.2348 30.6C64.3348 29.95 65.6348 29.6 67.1348 29.6C69.8348 29.6 72.0848 30.6 73.8848 32.6C75.7348 34.6 76.6348 37.1 76.6348 40.1C76.6348 43.05 75.7348 45.5 73.8848 47.5C72.0848 49.5 69.8848 50.5 67.2848 50.5C65.7348 50.5 64.4348 50.2 63.3848 49.55C62.3848 48.9 61.5348 47.95 60.8848 46.6V60.85H63.6348V61.4H54.1348V60.85H56.9348ZM60.8348 42.7C60.8348 44.75 61.3848 46.45 62.5348 47.85C63.6848 49.2 65.0848 49.9 66.7848 49.9C68.6848 49.9 70.0348 49.2 70.7848 47.85C71.5848 46.45 71.9348 43.95 71.9348 40.3C71.9348 36.55 71.5348 33.95 70.7848 32.5C69.9848 31 68.6348 30.3 66.7848 30.3C65.0848 30.3 63.6848 30.9 62.5348 32.1C61.3848 33.3 60.8348 34.8 60.8348 36.6V42.7ZM80.6016 49.45V15.55H77.8516V15H84.6516V49.45H87.4016V50H77.8516V49.45H80.6016ZM89.4102 39.5C89.4102 36.55 90.3602 34.05 92.3102 32.05C94.2602 30.05 96.6102 29 99.4102 29C102.26 29 104.61 30 106.51 32C108.36 34 109.31 36.5 109.31 39.45C109.31 42.4 108.31 44.9 106.36 46.95C104.41 48.95 102.11 50 99.3602 50C96.5102 50 94.1102 49 92.2602 47C90.3602 45 89.4102 42.5 89.4102 39.5ZM94.2102 39.5C94.2102 43.5 94.6102 46.15 95.3602 47.5C96.1102 48.85 97.4602 49.55 99.3602 49.55C101.21 49.55 102.56 48.85 103.31 47.4C104.11 45.95 104.51 43.35 104.51 39.55C104.51 35.55 104.11 32.9 103.36 31.55C102.61 30.25 101.26 29.6 99.4102 29.6C97.5102 29.6 96.1602 30.3 95.3602 31.65C94.6102 33.1 94.2102 35.7 94.2102 39.5ZM112.053 46.15L112.303 42.8H112.603C113.753 46.8 116.553 49.7 120.553 49.7C125.453 49.7 129.303 43.3 120.503 41.55L118.853 41.2C116.203 40.65 114.453 39.95 113.453 39.1C112.503 38.15 112.053 36.9 112.053 35.15C112.053 33.35 112.653 31.8 113.953 30.65C115.203 29.5 116.803 28.95 118.803 28.85C122.303 28.75 125.003 30.95 125.653 32.05L125.153 35.15H124.903C124.653 31.8 122.203 29.25 118.803 29.25C114.303 29.25 112.253 34 115.953 35.7C117.003 36.2 118.353 36.55 120.203 36.9L121.703 37.15C123.753 37.5 125.253 38.2 126.253 39.25C127.303 40.25 127.803 41.55 127.803 43.25C127.803 45.35 127.053 47.1 125.703 48.35C124.303 49.65 122.403 50.25 120.003 50.25C116.953 50.25 113.903 48.55 112.053 46.15ZM148.895 43.15H149.545C148.395 47.6 145.145 50 140.595 50C137.695 50 135.245 49.05 133.395 47.15C131.495 45.2 130.545 42.8 130.545 39.85C130.545 36.75 131.545 34.2 133.595 32.15C135.595 30.15 138.145 29.1 141.195 29.1C142.145 29.1 143.045 29.2 143.845 29.4C145.945 30 147.745 31.15 148.645 32.9V32.95L148.445 35.6H148.245C147.095 31.6 145.295 29.65 141.295 29.65C139.195 29.65 137.695 30.4 136.745 31.9C135.795 33.4 135.295 36.25 135.295 39.55C135.295 42.85 135.745 45.8 136.595 47.25C137.495 48.65 138.945 49.4 140.895 49.4C145.295 49.4 147.895 46.7 148.895 43.15ZM151.82 39.5C151.82 36.55 152.77 34.05 154.72 32.05C156.67 30.05 159.02 29 161.82 29C164.67 29 167.02 30 168.92 32C170.77 34 171.72 36.5 171.72 39.45C171.72 42.4 170.72 44.9 168.77 46.95C166.82 48.95 164.52 50 161.77 50C158.92 50 156.52 49 154.67 47C152.77 45 151.82 42.5 151.82 39.5ZM156.62 39.5C156.62 43.5 157.02 46.15 157.77 47.5C158.52 48.85 159.87 49.55 161.77 49.55C163.62 49.55 164.97 48.85 165.72 47.4C166.52 45.95 166.92 43.35 166.92 39.55C166.92 35.55 166.52 32.9 165.77 31.55C165.02 30.25 163.67 29.6 161.82 29.6C159.92 29.6 158.57 30.3 157.77 31.65C157.02 33.1 156.62 35.7 156.62 39.5ZM175.749 60.85C175.749 49.45 175.699 41.45 175.699 30H172.949V29.45H180.899V30H179.399V33.45C180.049 32.15 180.949 31.2 182.049 30.6C183.149 29.95 184.449 29.6 185.949 29.6C188.649 29.6 190.899 30.6 192.699 32.6C194.549 34.6 195.449 37.1 195.449 40.1C195.449 43.05 194.549 45.5 192.699 47.5C190.899 49.5 188.699 50.5 186.099 50.5C184.549 50.5 183.249 50.2 182.199 49.55C181.199 48.9 180.349 47.95 179.699 46.6V60.85H182.449V61.4H172.949V60.85H175.749ZM179.649 42.7C179.649 44.75 180.199 46.45 181.349 47.85C182.499 49.2 183.899 49.9 185.599 49.9C187.499 49.9 188.849 49.2 189.599 47.85C190.399 46.45 190.749 43.95 190.749 40.3C190.749 36.55 190.349 33.95 189.599 32.5C188.799 31 187.449 30.3 185.599 30.3C183.899 30.3 182.499 30.9 181.349 32.1C180.199 33.3 179.649 34.8 179.649 36.6V42.7ZM203.274 37.45C203.274 40.2 203.124 45.05 204.574 47.3C205.474 48.65 207.024 49.4 209.174 49.4C213.124 49.4 216.024 47.1 217.124 43H217.724C216.674 47.55 213.424 50 208.574 50C205.724 50 203.274 49.05 201.324 47.1C199.374 45.2 198.424 42.85 198.424 40.05C198.424 36.95 199.424 34.35 201.424 32.25C203.374 30.1 205.824 29.05 208.724 29.05C211.424 29.05 213.574 29.8 215.124 31.35C216.674 32.85 217.574 34.6 217.824 37.45H203.274ZM203.224 36.9H213.274C213.274 35.25 213.074 32.4 212.074 31.05C211.374 30.15 210.274 29.65 208.674 29.65C207.024 29.65 205.774 30.2 204.924 31.3C204.024 32.35 203.374 34.75 203.224 36.9Z" fill="black"/>
<path d="M1.06641 79H2.37891V75.625H4.21875L6.28125 79H7.78125L5.64844 75.5078C6.85547 75.2266 7.47656 74.3945 7.47656 73.0234C7.47656 71.3242 6.49219 70.457 4.59375 70.457H1.06641V79ZM2.37891 74.6055V71.4766H4.53516C5.61328 71.4766 6.17578 72.0039 6.17578 73.0234C6.17578 74.0664 5.64844 74.6055 4.62891 74.6055H2.37891ZM9.43312 79H15.7261V77.9336H10.7456V75.4844H15.3159V74.4648H10.7456V71.5234H15.5503V70.457H9.43312V79ZM17.378 76.4922H21.0694V75.5195H17.378V76.4922ZM23.1666 79H24.4673V70.457H23.1666V79ZM32.9864 70.457V77.5352L28.5216 70.457H27.0098V79H28.3223V72.5312L32.4005 79H34.2872V70.457H32.9864ZM35.9508 70.457L39.0914 79H40.3453L43.4391 70.457H42.0328L39.7125 77.3008L37.357 70.457H35.9508ZM45.1027 79H51.3956V77.9336H46.4152V75.4844H50.9855V74.4648H46.4152V71.5234H51.2198V70.457H45.1027V79ZM59.5045 70.457V77.5352L55.0397 70.457H53.528V79H54.8405V72.5312L58.9186 79H60.8053V70.457H59.5045ZM62.3986 71.5234H65.4103V79H66.7111V71.5234H69.7228V70.457H62.3986V71.5234ZM71.3512 79H72.652V70.457H71.3512V79ZM81.1711 70.457V77.5352L76.7063 70.457H75.1945V79H76.507V72.5312L80.5852 79H82.4719V70.457H81.1711ZM89.9362 74.2539V75.3086L91.7995 75.2969V77.3125C91.2839 77.7461 90.4284 78.0391 89.4323 78.0391C87.3816 78.0391 86.0105 76.7148 86.0105 74.7344C86.0105 72.7422 87.3816 71.418 89.4323 71.418C90.2292 71.418 91.3542 71.8867 92.2331 72.6016L92.8308 71.5117C91.9636 70.8203 90.6042 70.3516 89.4323 70.3516C86.5378 70.3516 84.6042 72.1094 84.6042 74.7344C84.6042 77.3594 86.5378 79.1055 89.4323 79.1055C90.8972 79.1055 92.2097 78.6367 93.0417 77.9453L93.0534 75.2852V74.2305L89.9362 74.2539ZM106.107 77.1953C105.345 77.957 104.256 78.0391 103.224 78.0391C101.431 78.0391 100.236 76.5156 100.236 74.7344C100.236 72.9414 101.431 71.418 103.224 71.418C104.138 71.418 105.228 71.6289 106.107 72.3438L106.705 71.2539C105.838 70.5625 104.513 70.3516 103.224 70.3516C100.588 70.3516 98.8298 72.3672 98.8298 74.7344C98.8298 77.0898 100.588 79.1055 103.224 79.1055C104.619 79.1055 105.955 79.0352 106.705 78.2852L106.107 77.1953ZM114.216 77.2773L114.943 79H116.372L112.74 70.457H111.298L107.572 79H109.013L109.751 77.2773H114.216ZM110.161 76.293L111.99 71.9922L113.806 76.293H110.161ZM124.012 70.457V77.5352L119.548 70.457H118.036V79H119.348V72.5312L123.427 79H125.313V70.457H124.012ZM134.723 77.1953C133.961 77.957 132.871 78.0391 131.84 78.0391C130.047 78.0391 128.852 76.5156 128.852 74.7344C128.852 72.9414 130.047 71.418 131.84 71.418C132.754 71.418 133.844 71.6289 134.723 72.3438L135.321 71.2539C134.453 70.5625 133.129 70.3516 131.84 70.3516C129.203 70.3516 127.446 72.3672 127.446 74.7344C127.446 77.0898 129.203 79.1055 131.84 79.1055C133.235 79.1055 134.571 79.0352 135.321 78.2852L134.723 77.1953ZM137.101 79H143.394V77.9336H138.414V75.4844H142.984V74.4648H138.414V71.5234H143.219V70.457H137.101V79ZM145.527 79H146.839V75.625H148.679L150.742 79H152.242L150.109 75.5078C151.316 75.2266 151.937 74.3945 151.937 73.0234C151.937 71.3242 150.952 70.457 149.054 70.457H145.527V79ZM146.839 74.6055V71.4766H148.995C150.074 71.4766 150.636 72.0039 150.636 73.0234C150.636 74.0664 150.109 74.6055 149.089 74.6055H146.839ZM164.885 77.1953C164.123 77.957 163.034 78.0391 162.002 78.0391C160.209 78.0391 159.014 76.5156 159.014 74.7344C159.014 72.9414 160.209 71.418 162.002 71.418C162.916 71.418 164.006 71.6289 164.885 72.3438L165.483 71.2539C164.616 70.5625 163.291 70.3516 162.002 70.3516C159.366 70.3516 157.608 72.3672 157.608 74.7344C157.608 77.0898 159.366 79.1055 162.002 79.1055C163.397 79.1055 164.733 79.0352 165.483 78.2852L164.885 77.1953ZM172.994 77.2773L173.721 79H175.15L171.518 70.457H170.076L166.35 79H167.791L168.529 77.2773H172.994ZM168.939 76.293L170.768 71.9922L172.584 76.293H168.939ZM176.814 79H178.126V75.625H179.966L182.029 79H183.529L181.396 75.5078C182.603 75.2266 183.224 74.3945 183.224 73.0234C183.224 71.3242 182.24 70.457 180.341 70.457H176.814V79ZM178.126 74.6055V71.4766H180.283C181.361 71.4766 181.923 72.0039 181.923 73.0234C181.923 74.0664 181.396 74.6055 180.376 74.6055H178.126ZM185.181 79H191.474V77.9336H186.493V75.4844H191.063V74.4648H186.493V71.5234H191.298V70.457H185.181V79ZM197.73 79H201.059C204.117 79 205.57 77.6289 205.57 74.7344C205.57 71.9102 203.918 70.457 200.707 70.457H197.73V79ZM199.043 77.9805V71.4766H200.766C203.004 71.4766 204.164 72.5898 204.164 74.7344C204.164 76.9375 203.133 77.9922 200.977 77.9922C200.402 77.9922 199.629 77.9805 199.043 77.9805ZM207.761 79H214.054V77.9336H209.074V75.4844H213.644V74.4648H209.074V71.5234H213.878V70.457H207.761V79ZM216.151 79H221.847V77.9336H217.452V70.457H216.151V79ZM223.71 79H225.01V70.457H223.71V79ZM226.674 70.457L229.815 79H231.068L234.162 70.457H232.756L230.436 77.3008L228.08 70.457H226.674ZM235.826 79H242.119V77.9336H237.138V75.4844H241.709V74.4648H237.138V71.5234H241.943V70.457H235.826V79ZM244.251 79H245.564V75.625H247.403L249.466 79H250.966L248.833 75.5078C250.04 75.2266 250.661 74.3945 250.661 73.0234C250.661 71.3242 249.677 70.457 247.778 70.457H244.251V79ZM245.564 74.6055V71.4766H247.72C248.798 71.4766 249.36 72.0039 249.36 73.0234C249.36 74.0664 248.833 74.6055 247.814 74.6055H245.564ZM257.973 70.457L255.559 74.2656L253.145 70.457H251.786L254.903 75.2969V79H256.215V75.2969L259.321 70.457H257.973Z" fill="#457B9D"/>
<path d="M229.495 27.0019C226.47 24.1105 224.296 19.5477 228.629 15.4065C232.962 11.2646 237.736 13.3429 240.762 16.2344L244.229 19.5476L232.962 30.3154L229.495 27.0019Z" fill="#C00C2D"/>
<path fill-rule="evenodd" clip-rule="evenodd" d="M246.248 15.29C249.553 12.1315 254.911 12.1315 258.216 15.29C261.521 18.4485 261.521 23.5695 258.216 26.728L251.078 33.5495L248.627 31.2067L255.764 24.3853C257.715 22.5206 257.715 19.4974 255.764 17.6328C253.813 15.7682 250.65 15.7682 248.699 17.6328L234.186 31.4876L231.736 29.1431L246.248 15.29Z" fill="#C00C2D"/>
<path d="M245.094 32.8001C245.094 33.7151 244.318 34.4567 243.36 34.4567C242.403 34.4567 241.627 33.7151 241.627 32.8001C241.627 31.8852 242.403 31.1436 243.36 31.1436C244.318 31.1436 245.094 31.8852 245.094 32.8001Z" fill="#C00C2D"/>
<path d="M248.56 37.7699C248.56 38.6848 247.784 39.4265 246.827 39.4265C245.87 39.4265 245.094 38.6848 245.094 37.7699C245.094 36.855 245.87 36.1133 246.827 36.1133C247.784 36.1133 248.56 36.855 248.56 37.7699Z" fill="#C00C2D"/>
<path d="M243.361 41.0831C243.361 41.998 242.585 42.7397 241.628 42.7397C240.671 42.7397 239.895 41.998 239.895 41.0831C239.895 40.1682 240.671 39.4265 241.628 39.4265C242.585 39.4265 243.361 40.1682 243.361 41.0831Z" fill="#C00C2D"/>
</svg>
