<svg width="12" height="15" viewBox="0 0 12 15" fill="none" xmlns="http://www.w3.org/2000/svg">
<path d="M6.00008 8.6665C5.26675 8.6665 4.66675 9.2665 4.66675 9.99984C4.66675 10.7332 5.26675 11.3332 6.00008 11.3332C6.73341 11.3332 7.33341 10.7332 7.33341 9.99984C7.33341 9.2665 6.73341 8.6665 6.00008 8.6665ZM10.0001 5.33317H9.33341V3.99984C9.33341 2.15984 7.84008 0.666504 6.00008 0.666504C4.48008 0.666504 3.15341 1.69317 2.77341 3.1665C2.68008 3.5265 2.89341 3.8865 3.25341 3.97984C3.33834 4.00188 3.42678 4.00694 3.51366 3.99473C3.60055 3.98252 3.68417 3.95328 3.75973 3.90869C3.83529 3.8641 3.90131 3.80503 3.95399 3.73487C4.00668 3.66471 4.045 3.58484 4.06675 3.49984C4.17705 3.07082 4.42683 2.69064 4.77681 2.41911C5.1268 2.14757 5.55711 2.00008 6.00008 1.99984C7.10008 1.99984 8.00008 2.89984 8.00008 3.99984V5.33317H2.00008C1.26675 5.33317 0.666748 5.93317 0.666748 6.6665V13.3332C0.666748 14.0665 1.26675 14.6665 2.00008 14.6665H10.0001C10.7334 14.6665 11.3334 14.0665 11.3334 13.3332V6.6665C11.3334 5.93317 10.7334 5.33317 10.0001 5.33317ZM10.0001 12.6665C10.0001 13.0332 9.70008 13.3332 9.33341 13.3332H2.66675C2.30008 13.3332 2.00008 13.0332 2.00008 12.6665V7.33317C2.00008 6.9665 2.30008 6.6665 2.66675 6.6665H9.33341C9.70008 6.6665 10.0001 6.9665 10.0001 7.33317V12.6665Z" fill="#5D737E"/>
</svg>
